<svg xmlns="http://www.w3.org/2000/svg" viewBox="-24.521 -35.864 1356.521 1984.033"><path d="M406.04 0h496.54c7.28.79 14.66.4 21.88 1.73 21.07 2.9 41.2 11.74 57.83 24.95 10.91 8.41 19.8 19.01 28.87 29.28 29.72 34.65 55.67 72.52 77.54 112.58 3.08 5.54 5.67 11.84 11.11 15.52 5.26 3.82 12.27 3.07 18.2 1.49.04-12.87-.19-25.75.05-38.63.11-4.14 1.04-8.72 4.38-11.51 4.05-3.37 9.63-3.55 14.64-4 14.34-1.48 29.13-1.27 42.99 3.06 16.38 5.03 30.25 16.78 39.08 31.32 4.12 6.82 6.41 15.6 2.89 23.16-4.14 8.78-13.02 13.94-21.56 17.72-11.73 5.35-24.85 5.42-37.46 6.26-8.85.07-17.74 1.2-25.92 4.72 1.99 5.2 2.6 11.37 7.02 15.26 27.56 25.76 55.07 51.59 82.93 77.03 10.69 10.27 22.16 19.73 32.24 30.62 11.81 12.96 21.57 27.83 28.41 43.99 8.45 19.72 12.5 41.12 13.25 62.5 2.8 54.94 4.24 109.94 4.83 164.95 1.98 56.43-2.81 113.4-17.7 167.99-3.66 12.83-9.83 24.72-15.19 36.88-2.79 6.8-6.23 13.57-6.85 21-.4 28.71-.24 57.43-.27 86.15-.14 7.82-.28 16.27-4.79 23.02-2.94 4.61-8.09 7.21-13.27 8.44-9.54 1.37-19.19.47-28.78.69-11.57.11-23.14.18-34.7.16-57.39.04-114.79.19-172.17-.08-7.49.19-15.6.11-21.96-4.41-7.36-5.01-9.63-14.52-9.66-22.92-.19-19.76-.1-39.52-.06-59.27-218.03.05-436.06-.03-654.09.04.21 15.45.03 30.9.09 46.35-.05 8.14.37 16.47-1.9 24.39-1.3 4.97-4.37 9.55-8.9 12.12-5.61 3.14-12.21 3.7-18.52 3.7-75.03.21-150.06.24-225.08.01-8.02.11-16.97-.34-23.29-5.93-6.11-5.62-7.34-14.45-7.62-22.33 0-29.01-.07-58.02-.17-87.02-.25-4.83.76-10.32-2.48-14.4-7.66-10.93-13.22-23.22-17.25-35.92-6.82-21-9.69-42.98-13.29-64.69C2.56 693.42.56 660.44 0 627.5v-34.88c.28-14.89.68-29.78.99-44.67 1.03-32.34 3.28-64.62 4.4-96.96 1.31-26.64 7.15-53.32 19.3-77.19 8.56-16.86 20.29-32.06 34.18-44.88 34.76-31.54 69.25-63.37 103.34-95.64 4.16-4.11 5.24-10.09 7.86-15.13-4.69-1.35-9.25-3.25-14.1-4.02-12.69-1.84-25.67-.99-38.25-3.71-9.11-2.14-17.92-6.07-25.26-11.92-5.82-4.66-10.15-11.86-9.25-19.55.79-10.34 7.64-18.96 14.58-26.16 10.11-10.8 23.73-18.22 38.3-20.83 15.03-2.81 30.54-1.29 45.39 1.82 3.91 1.83 5.89 6.37 6.77 10.39.94 13.32.3 26.69.38 40.03 4.56 1.87 9.72 4.21 14.66 2.37 4.99-1.71 8.01-6.41 10.54-10.75 7.49-13.68 15.27-27.21 23.54-40.44 20.49-33.02 44.11-64.09 70.22-92.87 10.98-12.03 23.94-22.39 38.61-29.56 13.34-6.7 28-10.61 42.83-12.03C394.69.38 400.38.6 406.04 0m-5.99 44.93c-21.76 3.6-42.22 14.82-56.6 31.6-37.26 45.16-68.75 94.97-94.86 147.35-1.67 3.36-3.13 7.23-2.03 11.01 1.11 3.44 4.21 5.66 7.25 7.32 5.73 3.13 11.55 6.48 18.08 7.62 15.03 2.6 30.02 5.55 45.22 7.04 14.58 1.08 29.21 1.05 43.81 1.18 26.04.69 52.08.9 78.11 1.28 25 .61 50 .6 75 .99 27.98.65 55.97.55 83.95 1.08 18.11.12 36.23.81 54.35.52.16-.31.49-.92.65-1.23 19.02-.03 38.04.28 57.06.2 49.99.53 99.99-.48 149.97-1.58 48.72-.95 97.43-2.41 146.12-4.34 14.06-1 27.54-5.5 40.81-9.99 3.75-1.24 7.77-2.48 10.57-5.44 2.64-2.55 3.75-6.52 2.86-10.08-1.08-5.41-4.73-9.74-7.52-14.34-22.94-36.41-45.35-73.14-68.64-109.32-8.45-12.97-16.24-26.75-28.1-37-16.55-15.05-38.49-23.52-60.7-24.99-8.46-.78-16.94-.27-25.41-.55-32-.18-64.01-.27-96.02-.22-110.31-.47-220.63-.04-330.95.05-14.33.49-28.8-.79-42.98 1.84M101.13 391.15c-10.62 1.36-20.77 6.04-28.75 13.16-13.24 11.86-20.76 28.65-25.61 45.44-6.06 20.45-8.78 42.67-2.95 63.49 4.42 16.26 14.98 30.86 29.43 39.64 15.97 9.9 35.2 12.96 53.74 12.58 18.68.25 37.36-.1 56.05.01 1.84.35 3.13-1.51 4.97-1.15 24.76.08 49.54 1.24 74.28-.26 6.83-.66 14.47-1.11 19.79-5.99 3.41-2.98 4.17-7.87 3.37-12.12-1.45-7.63-5.49-14.39-9.48-20.93-11.25-18.21-26.67-33.66-44.26-45.77-15.69-10.96-33.15-19.04-50.86-26.11-5.82-2.18-9.34-8-9.84-14.02-1.79-15.68-10.24-31.08-24.45-38.67-13.87-7.12-29.8-11.18-45.43-9.3m1095.88-.12c-5.08.45-10.16 1.08-15.12 2.27-9.38 2.19-19.06 4.6-26.87 10.51-10.53 7.44-16.69 19.78-18.55 32.32-.68 4.67-1.82 9.63-5.33 13.04-3.84 4.07-9.39 5.54-14.34 7.74-19.4 8.05-38.04 18.3-54.24 31.76-15.62 12.93-28.86 28.93-37.78 47.19-2.91 6.37-5.62 14.88-.51 20.88 6.35 6.55 16.11 7.36 24.67 8.44 14.35.36 28.71.06 43.07.16 27.03-.13 54.06.27 81.09.23 9.66-.32 19.39.24 28.97-1.37 13.98-2.19 27.62-7.54 38.72-16.41 11.83-9.37 20.54-22.83 23.3-37.74 2.17-12.26 2.55-24.8 1.53-37.19-1.94-20.49-9.25-40.53-21.53-57.1-4.94-6.56-10.3-13.06-17.3-17.51-8.72-5.75-19.47-7.89-29.78-7.22m-846 113.22c-8.76 1.32-14.86 8.26-21.54 13.4.64 1.14 1.28 2.28 1.91 3.43 214.77-.01 429.54.1 644.32-.05.54-1.29 1.1-2.57 1.67-3.85-6.11-4-11.33-9.45-18.23-12.14-19.34-6.5-39.99-5.08-60.07-5.21-164.68-.11-329.36-.11-494.05 0-18.08-.25-36.38-.14-54.01 4.42m-25.09 39.92c1.15 6.89 1.74 13.86 2.94 20.75 31.72-.25 63.45-.04 95.18-.11 184.81.03 369.61-.05 554.42.04.62-6.91 1.23-13.81 2.01-20.7-218.18.1-436.37.04-654.55.02m7.7 42.82c2.39 5.35 2.9 11.41 5.82 16.53 2.27 4.09 7.13 5.84 11.6 5.86 52.99-.01 105.99-.22 158.98-.2 22.34-.14 44.71.33 67.04-.34 88.66.01 177.33.01 265.99 0 25.98.7 52 .18 78 .34 13-.19 26.04.49 39.03-.58 3.89-.21 7.63-2.71 8.83-6.5 1.59-4.84 1.85-10.01 2.01-15.07-212.43-.06-424.87.02-637.3-.04m18.11 44.04c7.4 8.22 15.82 16.29 26.58 19.75 7.29 2.45 15.08 1.99 22.65 1.83 167.36 0 334.71-.01 502.07 0 8.85.08 18.04.91 26.52-2.21 10.15-3.71 18.08-11.47 25.14-19.37-200.99-.04-401.97-.04-602.96 0M85.42 702.45c-2.82 3.53-3.66 8.14-3.75 12.54-.34 16.09-1.26 32.55 3.17 48.22 3.06 10.85 9.48 20.58 17.84 28.09 12.45 11.28 27.54 19.27 43.22 25.08 9.01 3.65 18.36 6.49 27.98 7.98 23.19 3.79 46.75 1.6 70.12 2.14 27.34-.05 54.69.11 82.03-.08-.84-2.36-1.04-4.93-2.3-7.11-13.41-24.36-26.16-49.09-40.09-73.16-5.06-8.62-9.97-17.51-17.09-24.65-9.98-10.66-23.75-18.04-38.44-19.07-42.3-3.41-84.71-5.14-127.12-6.59-5.83-.37-11.93 1.94-15.57 6.61m1005.54-1.51c-18.01.28-36.93 6.02-49.32 19.68-4.58 5.02-7.93 10.99-11.65 16.64-17.85 28.06-34.15 57.06-50.97 85.74 1.76 1.4 3.37 3.83 5.98 3.11 5.35-.55 10.7.29 16.07.13 31.99-.03 63.99.48 95.98-.1 11.3-.85 22.72.16 33.94-1.71 12.95-1.99 25.42-6.24 37.53-11.13 16.27-6.6 32.63-15.33 43.16-29.85 11.52-15.96 13.46-36.37 13.73-55.46-.18-8.61.43-18.15-4.73-25.56-4.74-6.32-13.42-6.95-20.68-6.8-36.37 1.43-72.7 3.44-109.04 5.31M359.3 739.87c4.81 15.96 11 31.65 20.02 45.74 8.92 14.07 21.03 26.67 36.41 33.57 13.46 6.36 28.62 7.01 43.25 7.21 128.35.06 256.71.24 385.07.02 9.36 0 18.84.45 28.02-1.86 19.85-4.51 37.58-16.33 50.83-31.61 12.77-14.86 21.71-33.45 23.41-53.09-195.67.11-391.34.06-587.01.02z"/><path fill="#FFF" d="M400.05 44.93c14.18-2.63 28.65-1.35 42.98-1.84 110.32-.09 220.64-.52 330.95-.05 32.01-.05 64.02.04 96.02.22 8.47.28 16.95-.23 25.41.55 22.21 1.47 44.15 9.94 60.7 24.99 11.86 10.25 19.65 24.03 28.1 37 23.29 36.18 45.7 72.91 68.64 109.32 2.79 4.6 6.44 8.93 7.52 14.34.89 3.56-.22 7.53-2.86 10.08-2.8 2.96-6.82 4.2-10.57 5.44-13.27 4.49-26.75 8.99-40.81 9.99-48.69 1.93-97.4 3.39-146.12 4.34-49.98 1.1-99.98 2.11-149.97 1.58-19.02.08-38.04-.23-57.06-.2-.16.31-.49.92-.65 1.23-18.12.29-36.24-.4-54.35-.52-27.98-.53-55.97-.43-83.95-1.08-25-.39-50-.38-75-.99-26.03-.38-52.07-.59-78.11-1.28-14.6-.13-29.23-.1-43.81-1.18-15.2-1.49-30.19-4.44-45.22-7.04-6.53-1.14-12.35-4.49-18.08-7.62-3.04-1.66-6.14-3.88-7.25-7.32-1.1-3.78.36-7.65 2.03-11.01 26.11-52.38 57.6-102.19 94.86-147.35 14.38-16.78 34.84-28 56.6-31.6zM101.13 391.15c15.63-1.88 31.56 2.18 45.43 9.3 14.21 7.59 22.66 22.99 24.45 38.67.5 6.02 4.02 11.84 9.84 14.02 17.71 7.07 35.17 15.15 50.86 26.11 17.59 12.11 33.01 27.56 44.26 45.77 3.99 6.54 8.03 13.3 9.48 20.93.8 4.25.04 9.14-3.37 12.12-5.32 4.88-12.96 5.33-19.79 5.99-24.74 1.5-49.52.34-74.28.26-1.84-.36-3.13 1.5-4.97 1.15-18.69-.11-37.37.24-56.05-.01-18.54.38-37.77-2.68-53.74-12.58-14.45-8.78-25.01-23.38-29.43-39.64-5.83-20.82-3.11-43.04 2.95-63.49 4.85-16.79 12.37-33.58 25.61-45.44 7.98-7.12 18.13-11.8 28.75-13.16zM1197.01 391.03c10.31-.67 21.06 1.47 29.78 7.22 7 4.45 12.36 10.95 17.3 17.51 12.28 16.57 19.59 36.61 21.53 57.1 1.02 12.39.64 24.93-1.53 37.19-2.76 14.91-11.47 28.37-23.3 37.74-11.1 8.87-24.74 14.22-38.72 16.41-9.58 1.61-19.31 1.05-28.97 1.37-27.03.04-54.06-.36-81.09-.23-14.36-.1-28.72.2-43.07-.16-8.56-1.08-18.32-1.89-24.67-8.44-5.11-6-2.4-14.51.51-20.88 8.92-18.26 22.16-34.26 37.78-47.19 16.2-13.46 34.84-23.71 54.24-31.76 4.95-2.2 10.5-3.67 14.34-7.74 3.51-3.41 4.65-8.37 5.33-13.04 1.86-12.54 8.02-24.88 18.55-32.32 7.81-5.91 17.49-8.32 26.87-10.51 4.96-1.19 10.04-1.82 15.12-2.27zM351.01 504.25c17.63-4.56 35.93-4.67 54.01-4.42 164.69-.11 329.37-.11 494.05 0 20.08.13 40.73-1.29 60.07 5.21 6.9 2.69 12.12 8.14 18.23 12.14-.57 1.28-1.13 2.56-1.67 3.85-214.78.15-429.55.04-644.32.05-.63-1.15-1.27-2.29-1.91-3.43 6.68-5.14 12.78-12.08 21.54-13.4zM325.92 544.17c218.18.02 436.37.08 654.55-.02-.78 6.89-1.39 13.79-2.01 20.7-184.81-.09-369.61-.01-554.42-.04-31.73.07-63.46-.14-95.18.11-1.2-6.89-1.79-13.86-2.94-20.75zM333.62 586.99c212.43.06 424.87-.02 637.3.04-.16 5.06-.42 10.23-2.01 15.07-1.2 3.79-4.94 6.29-8.83 6.5-12.99 1.07-26.03.39-39.03.58-26-.16-52.02.36-78-.34-88.66.01-177.33.01-265.99 0-22.33.67-44.7.2-67.04.34-52.99-.02-105.99.19-158.98.2-4.47-.02-9.33-1.77-11.6-5.86-2.92-5.12-3.43-11.18-5.82-16.53zM351.73 631.03c200.99-.04 401.97-.04 602.96 0-7.06 7.9-14.99 15.66-25.14 19.37-8.48 3.12-17.67 2.29-26.52 2.21-167.36-.01-334.71 0-502.07 0-7.57.16-15.36.62-22.65-1.83-10.76-3.46-19.18-11.53-26.58-19.75zM85.42 702.45c3.64-4.67 9.74-6.98 15.57-6.61 42.41 1.45 84.82 3.18 127.12 6.59 14.69 1.03 28.46 8.41 38.44 19.07 7.12 7.14 12.03 16.03 17.09 24.65 13.93 24.07 26.68 48.8 40.09 73.16 1.26 2.18 1.46 4.75 2.3 7.11-27.34.19-54.69.03-82.03.08-23.37-.54-46.93 1.65-70.12-2.14-9.62-1.49-18.97-4.33-27.98-7.98-15.68-5.81-30.77-13.8-43.22-25.08-8.36-7.51-14.78-17.24-17.84-28.09-4.43-15.67-3.51-32.13-3.17-48.22.09-4.4.93-9.01 3.75-12.54zM1090.96 700.94c36.34-1.87 72.67-3.88 109.04-5.31 7.26-.15 15.94.48 20.68 6.8 5.16 7.41 4.55 16.95 4.73 25.56-.27 19.09-2.21 39.5-13.73 55.46-10.53 14.52-26.89 23.25-43.16 29.85-12.11 4.89-24.58 9.14-37.53 11.13-11.22 1.87-22.64.86-33.94 1.71-31.99.58-63.99.07-95.98.1-5.37.16-10.72-.68-16.07-.13-2.61.72-4.22-1.71-5.98-3.11 16.82-28.68 33.12-57.68 50.97-85.74 3.72-5.65 7.07-11.62 11.65-16.64 12.39-13.66 31.31-19.4 49.32-19.68zM359.3 739.87c195.67.04 391.34.09 587.01-.02-1.7 19.64-10.64 38.23-23.41 53.09-13.25 15.28-30.98 27.1-50.83 31.61-9.18 2.31-18.66 1.86-28.02 1.86-128.36.22-256.72.04-385.07-.02-14.63-.2-29.79-.85-43.25-7.21-15.38-6.9-27.49-19.5-36.41-33.57-9.02-14.09-15.21-29.78-20.02-45.74z"/><g><linearGradient id="a" gradientUnits="userSpaceOnUse" x1="652.758" y1="1914.111" x2="652.758" y2="949.591" gradientTransform="matrix(1 .0092 -.0092 1 13.282 -6.067)"><stop offset="0" stop-color="#fff"/><stop offset=".26" stop-color="#fdfdfd"/><stop offset=".397" stop-color="#f5f5f5"/><stop offset=".506" stop-color="#e7e7e7"/><stop offset=".6" stop-color="#d4d4d4"/><stop offset=".684" stop-color="#bbb"/><stop offset=".761" stop-color="#9c9c9c"/><stop offset=".833" stop-color="#787878"/><stop offset=".901" stop-color="#4e4e4e"/><stop offset=".964" stop-color="#1f1f1f"/><stop offset="1"/></linearGradient><path fill="url(#a)" d="M1202.346 955.216c9.592-.132 19.233.857 28.785-.425 5.576 1.571 11.498.326 17.093 1.897 6.34 1.159 12.203 5.203 14.868 11.178 3.997 9.067 2.953 19.178 3.115 28.82.05 27.002.192 54.004.203 81.005-.297 6.128 4.775 10.345 7.368 15.389 15.958 27.438 20.073 59.457 25.16 90.246 3.826 23.156 6.13 46.558 7.264 70 .666 6.976.03 14.05 1.277 20.982l-.785 85.206c-1.244 10.1-.828 20.334-1.462 30.498-1.446 25.668-2.663 51.348-3.79 77.029-2.48 34.688-13.59 69.357-35.364 96.828-10.395 13.545-23.616 24.453-36.123 35.928-28.39 25.94-56.622 52.06-84.577 78.464-4.209 4.221-6.123 10.074-7.844 15.648 5.542 1.932 11.155 3.863 17.05 4.398 9.403.826 18.872.984 28.252 2.08 10.71 1.249 21.032 5.344 29.825 11.556 5.792 4.153 10.735 10.349 11.237 17.704.649 7.716-2.978 14.983-7.335 21.103-8.293 11.134-19.3 20.563-32.377 25.543-17.756 7.097-37.546 5.964-55.996 2.584-6.504-.64-9.307-7.936-9.605-13.62-.575-12.395-.15-24.812-.007-37.2-4.498-2.343-9.87-4.252-14.907-2.588-6.313 2.501-9.373 9.004-12.514 14.545-26.365 48.189-58.085 93.588-95.686 133.684-9.016 9.197-19.31 17.212-30.647 23.338-18.382 9.9-39.368 14.848-60.225 14.415-26.993.112-53.987.513-80.976.194-22.682.13-45.364.262-68.036.353-31.327-.419-62.662-.008-93.984.043-51.028-.46-102.055.09-153.074-.26-13.944.36-27.928-.388-41.847.524l-77.527-.715c-8.03-2.164-16.416-2.681-24.31-5.394-23.508-6.957-44.182-21.739-60.032-40.255-33.46-37.14-62.23-78.427-86.207-122.27-3.405-5.982-6.16-12.998-12.407-16.615-5.072-3.107-11.291-2.104-16.82-1.115-.516 13.606.068 27.231-.487 40.837-.136 3.849-1.802 7.754-4.894 10.145-2.92 2.113-6.634 2.57-10.108 3.057-12.123 1.319-24.448 1.755-36.52-.237-14.24-2.291-27.829-8.936-37.964-19.26-6.924-7.175-13.71-15.317-15.717-25.356-1.087-4.67-.121-9.622 2.128-13.801 4.158-7.422 11.752-12.172 19.304-15.593 9.102-4.446 19.323-5.692 29.31-6.36 11.867-.65 24.184-.267 35.29-5.195-1.4-5.523-2.583-11.644-7.067-15.586-33.827-31.903-68.039-63.38-102.18-94.936-12.873-11.579-24.23-25.004-32.872-40.044-8.366-14.568-14.259-30.543-17.687-46.975-4.16-19.62-3.854-39.748-5.06-59.66-2.152-52.992-3.234-106.014-3.745-159.031-.41-48.766 5.07-97.687 17.656-144.833 3.89-14.155 10.801-27.172 16.585-40.58 2.63-6.485 5.83-13.056 5.926-20.195.267-25.66.513-51.328.26-76.991.393-10.087-1.215-21.172 4.448-30.16 4.397-7.27 13.411-9.797 21.44-9.693 32.971.064 65.937-.373 98.905-.039 41.021.059 82.047-.333 123.064.115 8.919.202 18.633-1.288 26.638 3.636 7.53 4.37 10.486 13.457 10.77 21.71.252 20.383.354 40.765.166 61.154 31.537.53 63.083.021 94.633.132 52.67.316 105.347-.229 158.025.217 53.976-.382 107.964.095 161.938-.107 25.363-.187 50.718.457 76.063-.01 28.99.068 57.973-.035 86.962.213 25.343-.167 50.684-.233 76.024-.07.308-17.147.436-34.297.214-51.44.226-9.308-.028-19.711 5.953-27.456 5.121-6.533 13.991-7.612 21.734-7.91 15.293-.19 30.593-.158 45.892.043 28.007.398 56.011.096 84.012.104 9.744-.3 19.536.55 29.228-.73 11.56.126 23.13.163 34.7.16m-220.94 130.268c.535 2.686 1.04 5.45 2.458 7.853 15.118 27.38 29.27 55.312 45.455 82.083 8.115 13.575 20.005 25.595 35.146 30.975 7.852 3.033 16.35 3.411 24.655 3.948 38.235 2.852 76.553 4.295 114.861 5.769 5.716.462 11.867-.681 16.154-4.742 4.013-3.493 5.264-9.012 5.4-14.12.506-15.696 1.153-31.671-2.716-47.037-2.85-10.747-8.84-20.553-16.88-28.197-10.628-10.049-23.409-17.647-36.847-23.291-9.357-3.646-18.661-7.582-28.513-9.643-24.41-5.495-49.573-3.067-74.35-3.546-28.277-.5-56.545.219-84.823-.052m-278.14-.114c-26.015.34-52.032-.16-78.054.01-26.689-.305-53.374.129-80.064.023-33.02-.115-66.031-.189-99.036.237-22.117 1.756-42.724 13.177-57.87 29.088-14.983 15.372-25.22 35.619-27.388 57.08 5.145.507 10.33-.055 15.499.183 26.333-.198 52.673-.075 79.012.068 26.332-.027 52.654-.114 78.985-.182 29.988.407 59.983.043 89.974.08 23.693-.212 47.378.376 71.072.065 30.001-.014 60.005-.227 90.003.14 54.127-.522 108.262.267 162.389-.224-2.662-9.645-6.286-18.978-10.372-28.086-7.533-15.96-17.32-31.462-31.501-42.313-11.418-8.985-25.61-14.266-40.102-15.13-15.159-1.32-30.403-.92-45.604-.87-38.984.23-77.972-.25-116.944-.169m-510.128.718c-22.039-.253-43.19 7.282-63.042 16.18-15.003 6.811-29.514 16.578-37.859 31.172-8.438 14.953-10.1 32.488-10.415 49.346.193 8.292-.459 17.166 3.572 24.734 2.871 5.267 8.787 7.921 14.563 8.364 10.704.73 21.396-.532 32.089-.794 27.673-1.315 55.338-2.78 83.002-4.155 17.573-.218 36.02-5.228 48.727-17.951 6.5-6.45 10.816-14.651 15.836-22.205 16.898-26.876 32.444-54.564 48.617-81.876-1.459-1.293-2.8-3.306-4.981-3.186-13.03-.14-26.05-.11-39.07-.29-11.347-.304-22.674.431-34.011.067-19.02-.186-38.022.03-57.028.594m611.467 173.434c-29.668-.314-59.341-.147-89.013-.14-24.003.298-48.009-.293-72.012-.044-29.67-.154-59.346.333-89.023-.131-49.654.232-99.304-.035-148.966-.033-8.803.359-17.881-1.035-26.418 1.806-10.68 3.312-19.015 11.315-26.34 19.428 2.774.666 5.637.342 8.457.398 7.7-.059 15.41-.008 23.112-.067 52.669.336 105.336-.199 158.005.177 54.645-.276 109.294.077 163.937-.059 28.025-.342 56.05.347 84.064.035 54.894-.204 109.782.262 164.668-.122-6.509-7.8-14.384-14.813-23.849-18.74-7.132-3.037-15.033-2.94-22.627-2.61-34.66-.149-69.331-.129-103.995.102m10.611 43.32c-25.322.076-50.65-.327-75.965.17-27.71-.146-55.42-.132-83.131-.237-47.307.554-94.64-.412-141.958.181-53.678-.454-107.354.01-161.034-.234-4.772.176-10.833.19-13.695 4.744-2.828 5.244-2.985 11.463-3.15 17.302 26.544-.206 53.086-.29 79.634.044 26.672-.144 53.353-.098 80.025-.213 51.678.467 103.367-.227 155.045.21 53.315-.349 106.632.243 159.958-.136 54.12.33 108.245-.092 162.365.187-2.068-5.68-2.77-11.956-6.043-17.117-3.532-5.202-10.41-5.426-16.062-5.238-18.012.104-36.016.438-54.024.212-27.32-.202-54.645.296-81.965.125m306.146 44.213c-2.75.925-5.676.548-8.496.562-21.38-.177-42.772-1.054-64.134.13-7.196.613-14.876.542-21.261 4.373-3.64 2.077-5.996 6.055-6.025 10.255.093 7.301 3.662 13.885 7.085 20.126 9.145 15.805 21.145 29.967 35.319 41.488 15.573 12.774 33.404 22.539 51.851 30.479 5.408 2.46 11.464 3.956 16.037 7.958 3.46 3.402 4.103 8.478 4.87 13.056 1.77 10.896 6.541 21.6 14.742 29.197 8.156 8.025 19.331 11.888 30.196 14.679 15.465 3.882 32.808 2.542 46.311-6.424 14.044-9.07 23.072-24.018 28.834-39.365 7.69-21.61 12.586-45.066 8.267-67.937-3.026-16.749-12-32.582-25.717-42.829-13.864-10.428-31.271-15.139-48.404-16.047-18.347-.4-36.71-.168-55.059-.358-4.794.416-9.726-.51-14.416.658m-236.62-.072c-54.306.37-108.623-.17-162.928.108-49.02-.251-98.025.057-147.045-.095-29.338-.35-58.665.3-88.004-.001-24.321.026-48.65-.279-72.973-.003-28.323.149-56.66-.262-84.974.017-.773 6.853-1.467 13.737-1.94 20.633 32.913-.247 65.822.116 98.724 0 52.023-.13 104.043.149 156.057-.022 26.35.013 52.7.266 79.063.029 80.612.103 161.236.056 241.85.09 26.184-.36 52.415.673 78.575-.306a2912.11 2912.11 0 01-2.702-20.316c-31.231-.038-62.474.164-93.703-.134m-729.513-.834c-14.148-.32-28.293.129-42.427.498-19.504 1.43-39.133 8.92-52.826 23.214-10.616 10.443-16.83 24.856-18.026 39.626-3.747 30.047 2.719 61.988 21.135 86.418 6.695 9.253 14.993 18.1 26.048 21.942 14.61 5.505 30.52 2.291 45.097-1.635 11.348-2.895 22.009-9.477 28.53-19.358 4.987-7.264 7.248-15.973 8.487-24.592.858-6.253 5.268-11.692 11.08-14.049 10.41-4.304 20.811-8.698 30.721-14.067 28.22-15 53.435-37.13 68.16-65.835 2.833-5.704 5.622-12.088 4.191-18.572-1.323-5.102-6.073-8.316-10.799-9.94-12.12-4.402-25.202-3.082-37.83-3.349-27.181-.07-54.362-.11-81.541-.302m649.206 44.617c-24.67-.087-49.334.215-74.002-.072-55.354.09-110.705-.01-166.058.009-26.353.277-52.709-.296-79.063-.039-24.98-.03-49.953.15-74.933-.01-26.208-.262-52.424.206-78.633-.035a196.123 196.123 0 00-1.942 3.542c7.306 5.887 14.643 12.755 24.278 14.344 9.799 2.38 19.91 3.454 29.99 3.367 15.021.038 30.04.117 45.06.205 55.667-.437 111.352.387 167.028.02 50.01.271 100.015-.078 150.035.083 30.98.206 61.965-.299 92.954-.043 26.68.216 53.345-.278 80.025-.152 12.768.257 25.525-1.455 37.923-4.451 8.277-1.804 14.316-8.238 20.635-13.42-.98-1.16-1.419-3.424-3.331-3.171-27.678-.355-55.361-.17-83.042-.176-28.974.283-57.95-.294-86.924-.001m-149.13 259.596c-2.337.849-4.837.806-7.266.733-41.042.002-82.091-.256-123.135-.025-70.034 1.125-140.06 2.56-210.047 5.234-7.325.423-14.703.235-21.955 1.498-12.259 1.937-24.046 5.988-35.724 10.051-4.756 1.666-9.966 4.918-10.537 10.413-.798 6.313 3.344 11.592 6.487 16.64 26.592 42.198 52.55 84.789 79.746 126.611 8.648 13.37 20.16 25.107 33.997 33.105 15.766 9.116 33.987 13.454 52.125 13.771 25.979.25 51.96.23 77.93.309 28.351.061 56.699.432 85.04.353 52.685-.204 105.373.272 158.058-.102 24.64.147 49.272.004 73.904-.05 26.666-.493 53.349.383 80.018-.502 26.651-1.064 53.072-12.99 70.203-33.664 36.844-44.692 67.98-93.947 93.898-145.71 1.446-2.877 2.744-5.936 2.934-9.194-.025-3.71-2.566-6.884-5.6-8.762-3.727-2.364-7.659-4.38-11.642-6.248-5.616-2.601-11.841-3.159-17.831-4.314-14.646-2.655-29.353-5.25-44.237-5.988-24.892-.95-49.815-.76-74.73-1.319a26659.181 26659.181 0 00-239.972-3.102c-3.882.164-7.882-.883-11.663.262z"/></g></svg>